<svg xmlns="http://www.w3.org/2000/svg" enable-background="new 0 0 512 512" viewBox="0 0 512 512" id="online-food-order"><path fill="#f2a98c" d="M233.532,421.457l-55.187,58.859c-43.471,46.363-118.449,41.069-155.186-10.793
			c-2.421-3.418-4.768-6.892-7.039-10.421c-0.183-0.285-0.366-0.57-0.549-0.856C-14.114,411.761-0.281,349.966,46.126,320.16
			l67.159-43.135L233.532,421.457z"></path><path fill="#ffc5ab" d="M357.119 151.002L357.119 151.002c9.4 16.928 30.743 23.03 47.671 13.63l89.245-49.558c16.928-9.4 23.03-30.743 13.63-47.671l0 0c-9.4-16.928-30.743-23.03-47.671-13.63l-89.245 49.558C353.822 112.732 347.719 134.075 357.119 151.002zM119.266 45.972L119.266 45.972c31.413-7.085 62.621 12.636 69.706 44.049l17.778 78.824c71.579-26.33 149.59-2.502 181.81 58.837 35.488 67.559 1.99 155.033-74.82 195.38-76.809 40.347-167.844 18.287-203.332-49.271-18.713-35.624-18.24-76.782-2.352-113.65 14.485-33.612 17.666-71.019 9.613-106.722l-17.44-77.325C97.17 62.52 105.692 49.034 119.266 45.972z"></path><path fill="#424242" d="M417.823,34.622v375.535c0,19.116-15.495,34.622-34.622,34.622H205.147
				c-19.116,0-34.622-15.506-34.622-34.622V34.622C170.524,15.495,186.031,0,205.147,0h178.054
				C402.328,0,417.823,15.495,417.823,34.622z"></path><path fill="#fff" d="M399.604,36.921v370.937c0,9.322-7.552,16.874-16.875,16.874H205.618c-9.322,0-16.874-7.552-16.874-16.874
			V36.921c0-9.322,7.552-16.874,16.874-16.874H382.73C392.052,20.047,399.604,27.599,399.604,36.921z"></path><path fill="#ac6bad" d="M399.604 36.921v255.587H188.743V36.921c0-9.322 7.552-16.874 16.874-16.874H382.73C392.052 20.047 399.604 27.599 399.604 36.921zM355.863 333.123H232.485c-9.099 0-16.476 7.377-16.476 16.476v14.943c0 9.099 7.376 16.476 16.476 16.476h123.378c9.099 0 16.476-7.376 16.476-16.476v-14.943C372.339 340.499 364.962 333.123 355.863 333.123z"></path><ellipse cx="294.174" cy="244.839" fill="#913e98" rx="73.567" ry="18.392"></ellipse><path fill="#fc933a" d="M296.535,133.343l-0.195-4.471h-23.61l-0.161-12.644l-0.713-57.302l-0.012-0.989
					c-0.035-2.299,1.805-4.184,4.104-4.207l15.438-0.195c1.598-0.012,3,0.874,3.713,2.184c0.31,0.575,0.483,1.218,0.494,1.92
					l0.736,58.589l0.149,12.644L296.535,133.343z"></path><path fill="#feb33c" d="M256.372,113.376c-1.218-1.782-3.253-2.897-5.472-2.897h-18.553c-0.299-4.218-0.598-8.426-0.897-12.644
					l-0.322-4.575l-2.31-32.599c-0.241-3.299,2.241-6.161,5.552-6.402l11.736-0.828c2.207-0.149,4.219,0.908,5.38,2.609
					c0.586,0.839,0.943,1.851,1.023,2.943l2.529,35.714l0.667,9.334l0.058,0.874L256.372,113.376z"></path><path fill="#fc933a" d="M346.169,60.661l-2.621,37.002l-0.908,12.817h-5.253c-0.264,0-0.517,0.012-0.77,0.046
					c-2.483,0.287-4.632,1.977-5.472,4.379c0,0.012-0.012,0.023-0.012,0.035l-2.77,8.035l-2.035,5.897h-8.816l0.897-12.644
					l0.632-8.966l3.425-48.278c0.241-3.299,3.104-5.782,6.403-5.552l11.748,0.828c2.391,0.172,4.345,1.724,5.161,3.816
					C346.089,58.88,346.238,59.753,346.169,60.661z"></path><path fill="#ffd23e" d="M273.649 128.871h-11.69l-2.035-5.897-2.77-8.035c0-.012-.012-.023-.012-.035-.195-.552-.448-1.069-.77-1.529-1.218-1.782-3.253-2.897-5.472-2.897h-.896V59.477c0-1.368.575-2.575 1.483-3.437 1.092-1.035 2.667-1.552 4.288-1.196l14.07 3.092c.759.172 1.448.517 2.012.989 1.057.873 1.713 2.196 1.724 3.644l.057 53.658L273.649 128.871zM366.883 61.742l-4.403 33.381-.391 2.989-1.736 13.116c-1.207-.483-2.54-.747-3.954-.747h-19.012c-.264 0-.517.012-.77.046l1.678-12.587.621-4.701 4.196-31.519c.218-1.621 1.253-2.977 2.667-3.644.506-.253 1.058-.402 1.644-.46l14.357-1.219C364.802 56.144 367.285 58.742 366.883 61.742zM319.444 116.227l.575 12.644h-23.541l.058 4.471-.195-4.471-.552-12.644-2.483-56.589c-.069-1.598.655-3.012 1.793-3.92 1.011-.805 2.356-1.195 3.77-.954l14.196 2.471c2.196.379 3.828 2.23 3.931 4.46l2.046 45.565L319.444 116.227z"></path><g><path fill="#db4646" d="M366.748,122.48l-15.932,105.568c-1.356,8.989-9.943,15.771-19.817,15.771h-73.705
				c-9.874,0-18.461-6.782-19.817-15.771l-0.586-3.943l-0.103-0.678L221.546,122.48c-0.966-6.414,3.828-12,10.345-12h19.012
				c2.805,0,5.311,1.782,6.242,4.425c0,0.012,0.012,0.023,0.012,0.035l2.77,8.035l2.035,5.897h64.371l2.035-5.897l2.77-8.035
				c0-0.012,0.012-0.023,0.012-0.035c0.931-2.644,3.437-4.425,6.242-4.425h19.012C362.92,110.48,367.713,116.066,366.748,122.48z"></path></g><g><path fill="#ee5351" d="M345.896,110.48l-14.771,97.867c-1.356,9-9.954,15.782-19.829,15.782h-73.693
				c-0.299-0.253-0.517-0.448-0.816-0.701L221.546,122.48c-0.966-6.414,3.828-12,10.345-12h19.012c2.805,0,5.311,1.782,6.242,4.425
				c0,0.012,0.012,0.023,0.012,0.035l2.77,8.035c1.219,3.529,4.54,5.897,8.276,5.897h51.888c3.736,0,7.058-2.368,8.276-5.897
				l2.77-8.035c0-0.012,0.012-0.023,0.012-0.035c0.931-2.644,3.437-4.425,6.242-4.425H345.896z"></path></g><g><path fill="#fec110" d="M259.181,160.006h70.885c5.378,0,9.252,5.159,7.753,10.324l-3.884,13.379
				c-1.001,3.449-4.161,5.822-7.753,5.822h-63.116c-3.592,0-6.752-2.373-7.753-5.822l-3.884-13.379
				C249.928,165.165,253.803,160.006,259.181,160.006z"></path></g><g><path fill="#f2aea0" d="M434.576,360.638l-37.324,20.725c-13.633,7.575-30.829,2.655-38.404-10.978
			c-6.506-11.713-3.805-26.036,5.713-34.645c1.563-1.425,3.334-2.701,5.265-3.77l37.324-20.725
			c4.345-2.414,9.046-3.552,13.679-3.552c9.932,0,19.564,5.242,24.725,14.541c1.471,2.655,2.483,5.449,3.035,8.276
			C450.875,342.2,445.553,354.534,434.576,360.638z"></path></g><g><path fill="#ffc5ab" d="M448.588,330.51c-1.575,1.425-3.334,2.701-5.265,3.77l-37.324,20.725
			c-13.644,7.564-30.841,2.655-38.415-10.989c-1.471-2.655-2.472-5.449-3.023-8.276c1.563-1.425,3.334-2.701,5.265-3.77
			l37.324-20.725c4.345-2.414,9.046-3.552,13.679-3.552c9.932,0,19.564,5.242,24.725,14.541
			C447.024,324.889,448.036,327.682,448.588,330.51z"></path></g><g><path fill="#f2aea0" d="M434.576,285.059l-37.324,20.725c-13.633,7.575-30.829,2.655-38.404-10.978
				c-6.506-11.713-3.805-26.036,5.713-34.645c1.563-1.425,3.334-2.701,5.265-3.77l37.324-20.725
				c4.345-2.414,9.046-3.552,13.679-3.552c9.932,0,19.564,5.242,24.725,14.541c1.471,2.655,2.483,5.449,3.035,8.276
				C450.875,266.622,445.553,278.956,434.576,285.059z"></path><path fill="#ffc5ab" d="M448.588,254.931c-1.575,1.425-3.334,2.701-5.265,3.77l-37.324,20.725
				c-13.644,7.564-30.841,2.655-38.415-10.989c-1.471-2.655-2.472-5.449-3.023-8.276c1.563-1.425,3.334-2.701,5.265-3.77
				l37.324-20.725c4.345-2.414,9.046-3.552,13.679-3.552c9.932,0,19.564,5.242,24.725,14.541
				C447.024,249.31,448.036,252.104,448.588,254.931z"></path></g><g><path fill="#f2aea0" d="M434.576,222.988l-37.324,20.725c-13.633,7.575-30.829,2.655-38.404-10.978
				c-6.506-11.713-3.805-26.036,5.713-34.645c1.563-1.425,3.334-2.701,5.265-3.77l37.324-20.725
				c4.345-2.414,9.046-3.552,13.679-3.552c9.932,0,19.564,5.242,24.725,14.541c1.471,2.655,2.483,5.449,3.035,8.276
				C450.875,204.55,445.553,216.884,434.576,222.988z"></path><path fill="#ffc5ab" d="M448.588,192.86c-1.575,1.425-3.334,2.701-5.265,3.77l-37.324,20.725
				c-13.644,7.564-30.841,2.655-38.415-10.989c-1.471-2.655-2.472-5.449-3.023-8.276c1.563-1.425,3.334-2.701,5.265-3.77
				l37.324-20.725c4.345-2.414,9.046-3.552,13.679-3.552c9.932,0,19.564,5.242,24.725,14.541
				C447.024,187.239,448.036,190.032,448.588,192.86z"></path></g><g><circle cx="394.505" cy="391.972" r="91.958" fill="#09cc66"></circle><path fill="#fff" d="M383.04,438.435c-0.206,0-0.412-0.005-0.619-0.016c-3.163-0.165-6.13-1.582-8.245-3.939l-37.055-41.29
					c-4.393-4.896-3.986-12.426,0.91-16.819c4.894-4.393,12.427-3.986,16.819,0.909l29.068,32.39l57.831-52.323
					c4.876-4.412,12.409-4.037,16.822,0.842c4.414,4.878,4.037,12.409-0.841,16.823l-66.698,60.347
					C388.836,437.343,385.986,438.435,383.04,438.435z"></path></g></svg>